<svg xmlns="http://www.w3.org/2000/svg" viewBox="0 0 100 100">
  <!-- Circuit F1 - Version avec checkered -->
  <path d="M 15 50 Q 25 30, 40 35 Q 55 40, 70 30 Q 85 20, 85 50 Q 85 80, 70 70 Q 55 60, 40 65 Q 25 70, 15 50 Z" 
        fill="#ffffff" stroke="#10b981" stroke-width="3"/>
  <!-- Pattern checkered -->
  <rect x="20" y="35" width="8" height="8" fill="#000000"/>
  <rect x="36" y="35" width="8" height="8" fill="#000000"/>
  <rect x="52" y="35" width="8" height="8" fill="#000000"/>
  <rect x="68" y="35" width="8" height="8" fill="#000000"/>
  <rect x="28" y="43" width="8" height="8" fill="#000000"/>
  <rect x="44" y="43" width="8" height="8" fill="#000000"/>
  <rect x="60" y="43" width="8" height="8" fill="#000000"/>
  <rect x="76" y="43" width="8" height="8" fill="#000000"/>
  <!-- Secteurs -->
  <circle cx="40" cy="35" r="3" fill="#fbbf24"/>
  <circle cx="70" cy="30" r="3" fill="#fbbf24"/>
  <circle cx="40" cy="65" r="3" fill="#fbbf24"/>
  <!-- Start/Finish -->
  <rect x="12" y="45" width="6" height="10" fill="#ef4444"/>
</svg>
